<?xml version="1.0" encoding="UTF-8" standalone="no"?>
<svg
   xmlns:dc="http://purl.org/dc/elements/1.1/"
   xmlns:cc="http://creativecommons.org/ns#"
   xmlns:rdf="http://www.w3.org/1999/02/22-rdf-syntax-ns#"
   xmlns:svg="http://www.w3.org/2000/svg"
   xmlns="http://www.w3.org/2000/svg"
   xmlns:sodipodi="http://sodipodi.sourceforge.net/DTD/sodipodi-0.dtd"
   xmlns:inkscape="http://www.inkscape.org/namespaces/inkscape"
   height="25"
   version="1.1"
   viewBox="0 0 25 25"
   width="25"
   id="svg4558"
   sodipodi:docname="card-check.svg"
   inkscape:version="0.92.2 (5c3e80d, 2017-08-06)">
  <metadata
     id="metadata4562">
    <rdf:RDF>
      <cc:Work
         rdf:about="">
        <dc:format>image/svg+xml</dc:format>
        <dc:type
           rdf:resource="http://purl.org/dc/dcmitype/StillImage" />
        <dc:title></dc:title>
      </cc:Work>
    </rdf:RDF>
  </metadata>
  <sodipodi:namedview
     pagecolor="#ffffff"
     bordercolor="#666666"
     borderopacity="1"
     objecttolerance="10"
     gridtolerance="10"
     guidetolerance="10"
     inkscape:pageopacity="0"
     inkscape:pageshadow="2"
     inkscape:window-width="1920"
     inkscape:window-height="1017"
     id="namedview4560"
     showgrid="false"
     inkscape:zoom="11.8"
     inkscape:cx="10"
     inkscape:cy="10"
     inkscape:window-x="-8"
     inkscape:window-y="-8"
     inkscape:window-maximized="1"
     inkscape:current-layer="svg4558" />
  <desc
     id="desc4550" />
  <defs
     id="defs4552" />
  <g
     style="fill:none;fill-rule:evenodd;stroke:none;stroke-width:1"
     id="Page-1"
     transform="matrix(1.1768868,0,0,1.1697794,0.63199553,0.58893366)">
    <g
       style="fill:#000000"
       id="Core"
       transform="translate(-170,-86)">
      <g
         id="check-circle-outline-blank"
         transform="translate(170,86)">
        <path
           inkscape:connector-curvature="0"
           d="m 10.12024,0.07364975 c -5.4999995,0 -9.99999952,4.50000005 -9.99999952,10.00000025 0,5.5 4.50000002,10 9.99999952,10 5.5,0 10,-4.5 10,-10 0,-5.5000002 -4.5,-10.00000025 -10,-10.00000025 z M 10.035319,18.767823 c -4.4000008,0 -8.5105896,-4.294173 -8.5105896,-8.694173 0,-4.4000002 4.1955596,-8.69347 8.5955586,-8.69347 4.4,0 8.680529,4.2934698 8.680529,8.69347 0,4.4 -4.365499,8.694173 -8.765498,8.694173 z"
           id="Shape"
           sodipodi:nodetypes="ssssssssss" />
      </g>
    </g>
  </g>
  <g
     transform="matrix(0.67517153,0,0,0.71894981,6.9109836,6.8522264)"
     style="fill:none;fill-rule:evenodd;stroke:none;stroke-width:1"
     id="Page-1-1">
    <g
       style="fill:#000000"
       id="Core-7"
       transform="translate(-423,-47)">
      <g
         id="check"
         transform="translate(423,47.5)">
        <path
           inkscape:connector-curvature="0"
           d="M 6,10.2 1.8,6 0.4,7.4 6,13 16.197523,2.677663 14.713092,1.3970966 Z"
           id="Shape-2"
           sodipodi:nodetypes="ccccccc" />
      </g>
    </g>
  </g>
</svg>
