<?xml version="1.0" encoding="UTF-8" standalone="no"?>
<svg
   xmlns:dc="http://purl.org/dc/elements/1.1/"
   xmlns:cc="http://creativecommons.org/ns#"
   xmlns:rdf="http://www.w3.org/1999/02/22-rdf-syntax-ns#"
   xmlns:svg="http://www.w3.org/2000/svg"
   xmlns="http://www.w3.org/2000/svg"
   xmlns:sodipodi="http://sodipodi.sourceforge.net/DTD/sodipodi-0.dtd"
   xmlns:inkscape="http://www.inkscape.org/namespaces/inkscape"
   height="25"
   version="1.1"
   viewBox="0 0 25 25"
   width="25"
   id="svg4558"
   sodipodi:docname="card-close-ico.svg"
   inkscape:version="0.92.2 (5c3e80d, 2017-08-06)">
  <metadata
     id="metadata4562">
    <rdf:RDF>
      <cc:Work
         rdf:about="">
        <dc:format>image/svg+xml</dc:format>
        <dc:type
           rdf:resource="http://purl.org/dc/dcmitype/StillImage" />
        <dc:title></dc:title>
      </cc:Work>
    </rdf:RDF>
  </metadata>
  <sodipodi:namedview
     pagecolor="#ffffff"
     bordercolor="#666666"
     borderopacity="1"
     objecttolerance="10"
     gridtolerance="10"
     guidetolerance="10"
     inkscape:pageopacity="0"
     inkscape:pageshadow="2"
     inkscape:window-width="1920"
     inkscape:window-height="1017"
     id="namedview4560"
     showgrid="false"
     inkscape:zoom="11.8"
     inkscape:cx="10"
     inkscape:cy="10"
     inkscape:window-x="-8"
     inkscape:window-y="-8"
     inkscape:window-maximized="1"
     inkscape:current-layer="svg4558" />
  <desc
     id="desc4550" />
  <defs
     id="defs4552" />
  <g
     style="fill:none;fill-rule:evenodd;stroke:none;stroke-width:1"
     id="Page-1"
     transform="matrix(1.1768868,0,0,1.1697794,0.63199553,0.58893366)">
    <g
       style="fill:#000000"
       id="Core"
       transform="translate(-170,-86)">
      <g
         id="check-circle-outline-blank"
         transform="translate(170,86)">
        <path
           inkscape:connector-curvature="0"
           d="m 10.12024,0.07364975 c -5.4999995,0 -9.99999952,4.50000005 -9.99999952,10.00000025 0,5.5 4.50000002,10 9.99999952,10 5.5,0 10,-4.5 10,-10 0,-5.5000002 -4.5,-10.00000025 -10,-10.00000025 z M 10.035319,18.767823 c -4.4000008,0 -8.5105896,-4.294173 -8.5105896,-8.694173 0,-4.4000002 4.1955596,-8.69347 8.5955586,-8.69347 4.4,0 8.680529,4.2934698 8.680529,8.69347 0,4.4 -4.365499,8.694173 -8.765498,8.694173 z"
           id="Shape"
           sodipodi:nodetypes="ssssssssss" />
      </g>
    </g>
  </g>
  <path
     inkscape:connector-curvature="0"
     d="M 16.29452,15.121085 13.594627,12.457626 16.29452,9.7941696 c 0.29149,-0.287557 0.29149,-0.750501 0,-1.038055 -0.291488,-0.287557 -0.760765,-0.287557 -1.052254,0 L 12.542373,11.419572 9.8424821,8.7561146 c -0.291491,-0.287557 -0.760768,-0.287557 -1.052257,0 -0.291489,0.287554 -0.291489,0.750498 0,1.038055 l 2.6998939,2.6634564 -2.6998939,2.663459 c -0.291489,0.287556 -0.291489,0.750499 0,1.038056 0.291489,0.287554 0.760766,0.287554 1.052257,0 l 2.6998909,-2.663459 2.699893,2.663459 c 0.291489,0.287554 0.760766,0.287554 1.052254,0 0.289422,-0.287557 0.289422,-0.752541 0,-1.038056 z"
     id="path6987"
     style="stroke-width:0.02053303" />
</svg>
