<?xml version="1.0" encoding="UTF-8" standalone="no"?>
<!-- Generator: Adobe Illustrator 16.0.0, SVG Export Plug-In . SVG Version: 6.00 Build 0)  -->

<svg
   xmlns:dc="http://purl.org/dc/elements/1.1/"
   xmlns:cc="http://creativecommons.org/ns#"
   xmlns:rdf="http://www.w3.org/1999/02/22-rdf-syntax-ns#"
   xmlns:svg="http://www.w3.org/2000/svg"
   xmlns="http://www.w3.org/2000/svg"
   xmlns:sodipodi="http://sodipodi.sourceforge.net/DTD/sodipodi-0.dtd"
   xmlns:inkscape="http://www.inkscape.org/namespaces/inkscape"
   version="1.1"
   x="0px"
   y="0px"
   width="172"
   height="66"
   viewBox="0 0 172 66"
   enable-background="new 0 0 191 77"
   xml:space="preserve"
   id="svg959"
   sodipodi:docname="ID.svg"
   inkscape:version="0.92.2 (5c3e80d, 2017-08-06)"><metadata
     id="metadata965"><rdf:RDF><cc:Work
         rdf:about=""><dc:format>image/svg+xml</dc:format><dc:type
           rdf:resource="http://purl.org/dc/dcmitype/StillImage" /><dc:title></dc:title></cc:Work></rdf:RDF></metadata><defs
     id="defs963" /><sodipodi:namedview
     pagecolor="#ffffff"
     bordercolor="#666666"
     borderopacity="1"
     objecttolerance="10"
     gridtolerance="10"
     guidetolerance="10"
     inkscape:pageopacity="0"
     inkscape:pageshadow="2"
     inkscape:window-width="1920"
     inkscape:window-height="1017"
     id="namedview961"
     showgrid="false"
     inkscape:zoom="5.3310668"
     inkscape:cx="85.610651"
     inkscape:cy="35.657459"
     inkscape:window-x="-8"
     inkscape:window-y="-8"
     inkscape:window-maximized="1"
     inkscape:current-layer="svg959" /><g
     id="NRJ_1_"
     enable-background="new    "
     transform="translate(-13.880899,-6.8732462)"><g
       id="NRJ"><g
         id="g893"><path
           d="m 72.644,27.097 c -0.135,0.086 -0.203,0.264 -0.203,0.533 v 8.561 c 0,2.474 0.16,5.192 0.479,8.156 -0.835,-3.649 -1.56,-6.246 -2.173,-7.789 L 66.88,26.895 h -3.241 c -0.492,0 -0.737,0.245 -0.737,0.735 v 24.983 c 1.129,0 2.032,-0.012 2.707,-0.037 0.675,-0.023 1.074,-0.079 1.197,-0.165 0.123,-0.085 0.184,-0.263 0.184,-0.532 v -8.818 c 0,-2.498 -0.16,-5.314 -0.479,-8.45 0.835,3.797 1.571,6.516 2.21,8.156 l 3.904,9.847 h 3.168 c 0.245,0 0.429,-0.067 0.552,-0.202 0.123,-0.134 0.184,-0.312 0.184,-0.532 V 26.895 c -1.129,0 -2.025,0.013 -2.688,0.037 -0.663,0.024 -1.063,0.079 -1.197,0.165 z M 88.095,41.37 c 1.718,-1.347 2.578,-3.649 2.578,-6.907 0,-1.959 -0.271,-3.49 -0.81,-4.592 -0.541,-1.103 -1.326,-1.874 -2.357,-2.315 -1.031,-0.44 -2.37,-0.661 -4.015,-0.661 h -3.462 c -0.294,0 -0.492,0.092 -0.589,0.275 -0.098,0.184 -0.147,0.337 -0.147,0.46 v 24.983 c 1.129,0 2.026,-0.012 2.689,-0.037 0.663,-0.023 1.062,-0.079 1.197,-0.165 0.134,-0.085 0.202,-0.263 0.202,-0.532 v -9.186 h 0.295 c 0.294,0 0.516,-0.012 0.663,-0.037 0.613,0.882 1.154,2.125 1.621,3.729 0.466,1.604 0.724,3.681 0.773,6.228 0.933,0.073 1.731,0.11 2.394,0.11 0.663,0 1.142,-0.024 1.437,-0.073 0.294,-0.049 0.484,-0.135 0.571,-0.258 0.086,-0.122 0.129,-0.317 0.129,-0.588 C 91.19,49.33 90.841,47.237 90.214,45.522 89.586,43.808 88.88,42.424 88.095,41.37 Z M 85.59,37.917 c -0.319,0.661 -0.798,0.992 -1.436,0.992 H 83.38 v -8.487 h 1.032 c 0.589,0 1.013,0.307 1.271,0.918 0.258,0.613 0.387,1.58 0.387,2.903 -10e-4,1.788 -0.161,3.013 -0.48,3.674 z M 99.107,26.968 c -0.492,0.05 -0.799,0.184 -0.921,0.404 -0.123,0.221 -0.185,0.661 -0.185,1.323 V 45.89 c 0,0.98 -0.049,1.709 -0.146,2.187 -0.1,0.478 -0.283,0.808 -0.553,0.991 -0.271,0.185 -0.688,0.276 -1.252,0.276 -0.492,0 -1.008,-0.104 -1.547,-0.312 -0.541,-0.208 -1.007,-0.459 -1.4,-0.753 -0.197,0.44 -0.338,0.808 -0.423,1.102 -0.086,0.294 -0.129,0.661 -0.129,1.103 0,0.76 0.282,1.359 0.847,1.8 0.564,0.441 1.645,0.662 3.241,0.662 1.964,0 3.376,-0.515 4.235,-1.544 0.859,-1.028 1.289,-2.596 1.289,-4.702 V 26.895 c -1.546,0 -2.565,0.024 -3.056,0.073 z"
           id="path891"
           inkscape:connector-curvature="0" /></g></g></g><g
     id="Ellipse_4_1_"
     enable-background="new    "
     transform="translate(-13.880899,-6.8732462)"><g
       id="Ellipse_4"><g
         id="g899"><circle
           cx="99.984001"
           cy="20.233999"
           r="2.9530001"
           id="circle897"
           style="fill:#e42626" /></g></g></g><g
     id="Mining_1_"
     enable-background="new    "
     transform="translate(-13.880899,-6.8732462)"><g
       id="Mining"><g
         id="g905"><path
           d="m 119.623,27.023 c -0.072,0.086 -0.146,0.238 -0.221,0.459 l -3.277,10.691 c -0.221,0.784 -0.437,1.568 -0.645,2.352 -0.209,0.784 -0.35,1.323 -0.424,1.617 -0.074,-0.294 -0.221,-0.839 -0.441,-1.636 -0.222,-0.795 -0.467,-1.61 -0.737,-2.443 l -3.536,-11.169 h -2.137 c -0.196,0 -0.344,0.037 -0.441,0.11 -0.099,0.073 -0.147,0.233 -0.147,0.478 v 25.131 c 0.786,0 1.411,-0.006 1.878,-0.019 0.467,-0.012 0.756,-0.055 0.866,-0.128 0.11,-0.074 0.165,-0.221 0.165,-0.441 l -0.072,-8.561 c -0.025,-1.616 -0.124,-3.612 -0.295,-5.989 -0.172,-2.375 -0.295,-3.943 -0.369,-4.702 l 0.037,-0.037 c 1.252,4.581 2.038,7.349 2.357,8.304 l 1.915,5.952 h 1.29 c 0.195,0 0.331,-0.098 0.404,-0.294 l 1.952,-5.658 c 0.245,-0.661 0.847,-2.756 1.806,-6.283 l 0.625,-2.204 c -0.073,0.882 -0.196,2.548 -0.367,4.997 -0.173,2.449 -0.283,4.47 -0.332,6.062 l -0.111,9.002 c 0.859,0 1.535,-0.006 2.026,-0.019 0.491,-0.012 0.779,-0.055 0.866,-0.128 0.086,-0.074 0.129,-0.221 0.129,-0.441 V 26.895 h -2.395 c -0.172,0 -0.295,0.043 -0.369,0.128 z m 6.704,0.239 c -0.099,0.172 -0.147,0.503 -0.147,0.992 v 24.359 c 0.835,0 1.498,-0.006 1.989,-0.019 0.491,-0.012 0.786,-0.055 0.884,-0.128 0.098,-0.074 0.147,-0.221 0.147,-0.441 v -25.13 c -1.104,0 -1.836,0.019 -2.191,0.056 -0.357,0.035 -0.583,0.14 -0.682,0.311 z m 16.943,-0.22 c -0.098,0.073 -0.146,0.22 -0.146,0.44 v 8.671 c 0,1.348 0.03,3.276 0.092,5.787 0.061,2.511 0.152,4.243 0.276,5.198 v 0.11 c -0.442,-1.298 -0.713,-2.094 -0.811,-2.388 -1.498,-4.507 -2.407,-7.189 -2.726,-8.047 l -4.162,-9.92 h -2.247 c -0.394,0 -0.589,0.196 -0.589,0.588 v 25.131 c 0.811,0 1.461,-0.006 1.952,-0.019 0.491,-0.012 0.778,-0.055 0.865,-0.128 0.086,-0.074 0.129,-0.221 0.129,-0.441 v -8.928 c 0,-1.372 -0.036,-3.294 -0.11,-5.769 -0.074,-2.474 -0.16,-4.237 -0.258,-5.291 1.743,5.414 2.91,8.904 3.499,10.472 l 4.235,10.104 h 2.211 c 0.416,0 0.625,-0.195 0.625,-0.588 V 26.895 c -0.81,0 -1.461,0.007 -1.951,0.019 -0.492,0.012 -0.787,0.054 -0.884,0.128 z m 6.74,0.22 c -0.098,0.172 -0.147,0.503 -0.147,0.992 v 24.359 c 0.835,0 1.497,-0.006 1.989,-0.019 0.49,-0.012 0.785,-0.055 0.884,-0.128 0.098,-0.074 0.147,-0.221 0.147,-0.441 v -25.13 c -1.105,0 -1.836,0.019 -2.191,0.056 -0.357,0.035 -0.585,0.14 -0.682,0.311 z m 16.943,-0.22 c -0.1,0.073 -0.148,0.22 -0.148,0.44 v 8.671 c 0,1.348 0.031,3.276 0.093,5.787 0.062,2.511 0.153,4.243 0.276,5.198 v 0.11 c -0.442,-1.298 -0.713,-2.094 -0.811,-2.388 -1.498,-4.507 -2.406,-7.189 -2.726,-8.047 l -4.162,-9.92 h -2.247 c -0.393,0 -0.59,0.196 -0.59,0.588 v 25.131 c 0.811,0 1.461,-0.006 1.953,-0.019 0.49,-0.012 0.779,-0.055 0.865,-0.128 0.086,-0.074 0.129,-0.221 0.129,-0.441 v -8.928 c 0,-1.372 -0.037,-3.294 -0.11,-5.769 -0.073,-2.474 -0.16,-4.237 -0.258,-5.291 1.743,5.414 2.909,8.904 3.499,10.472 l 4.236,10.104 h 2.209 c 0.418,0 0.627,-0.195 0.627,-0.588 V 26.895 c -0.811,0 -1.461,0.007 -1.953,0.019 -0.489,0.012 -0.784,0.054 -0.882,0.128 z m 13.222,10.508 c -0.467,0 -0.7,0.196 -0.7,0.588 v 1.873 h 2.763 v 9.148 c -0.123,0.221 -0.374,0.43 -0.755,0.625 -0.381,0.196 -0.865,0.294 -1.455,0.294 -0.884,0 -1.596,-0.238 -2.137,-0.717 -0.539,-0.478 -0.957,-1.433 -1.252,-2.865 -0.295,-1.432 -0.441,-3.558 -0.441,-6.375 0,-2.742 0.184,-4.887 0.553,-6.43 0.367,-1.543 0.933,-2.639 1.693,-3.288 0.762,-0.648 1.793,-0.974 3.094,-0.974 0.59,0 1.143,0.08 1.658,0.239 0.515,0.159 0.945,0.373 1.289,0.643 0.27,-0.686 0.405,-1.322 0.405,-1.91 0,-0.49 -0.362,-0.925 -1.087,-1.305 -0.725,-0.38 -1.676,-0.569 -2.854,-0.569 -1.768,0 -3.217,0.374 -4.347,1.12 -1.129,0.748 -2.007,2.126 -2.633,4.134 -0.627,2.009 -0.939,4.862 -0.939,8.561 0,3.405 0.233,6.014 0.699,7.826 0.467,1.812 1.191,3.067 2.174,3.766 0.983,0.699 2.332,1.047 4.052,1.047 2.038,0 3.72,-0.551 5.046,-1.653 V 37.55 Z"
           id="path903"
           inkscape:connector-curvature="0"
           style="fill:#606060" /></g></g></g><g
     id="Shape_1_1_"
     enable-background="new    "
     transform="translate(0,-11)"><g
       id="Shape_1"><g
         id="g918"><linearGradient
           id="SVGID_1_"
           gradientUnits="userSpaceOnUse"
           x1="28.2402"
           y1="71.619102"
           x2="28.2402"
           y2="15.689"><stop
             offset="0.0024"
             style="stop-color:#FF9E1D"
             id="stop909" /><stop
             offset="0.52"
             style="stop-color:#FD9300"
             id="stop911" /><stop
             offset="0.75"
             style="stop-color:#FAA552"
             id="stop913" /></linearGradient><polygon
           points="15.227,27.899 15.076,51.87 25.156,57.75 23.501,71.619 31.174,45.538 23.351,47.8 41.404,18.854 35.837,15.688 "
           id="polygon916"
           style="fill:url(#SVGID_1_)"
           transform="translate(-13.880899,4.1267538)" /></g></g></g><g
     id="Shape_1_copy_2_1_"
     enable-background="new    "
     transform="translate(-13.880899,-6.8732462)"><g
       id="Shape_1_copy_2"><g
         id="g929"><linearGradient
           id="SVGID_2_"
           gradientUnits="userSpaceOnUse"
           x1="28.315399"
           y1="29.2568"
           x2="28.315399"
           y2="15.6885"><stop
             offset="0.0024"
             style="stop-color:#FF7D00"
             id="stop922" /><stop
             offset="1"
             style="stop-color:#FF7105"
             id="stop924" /></linearGradient><path
           d="m 35.837,15.688 -20.61,12.211 c 0,0 5.187,-0.459 9.761,-0.144 5.236,0.36 9.948,1.501 9.948,1.501 l 6.469,-10.402 z"
           id="path927"
           style="fill:url(#SVGID_2_)"
           inkscape:connector-curvature="0" /></g></g></g><g
     id="Shape_1_copy_1_"
     enable-background="new    "
     transform="translate(-13.880899,-6.8732462)"><g
       id="Shape_1_copy"><g
         id="g944"><linearGradient
           id="SVGID_3_"
           gradientUnits="userSpaceOnUse"
           x1="43.5854"
           y1="63.930698"
           x2="43.5854"
           y2="8.0004997"><stop
             offset="0"
             style="stop-color:#C9191C"
             id="stop933" /><stop
             offset="0.33"
             style="stop-color:#EE2A2C"
             id="stop935" /><stop
             offset="0.75"
             style="stop-color:#F7706A"
             id="stop937" /><stop
             offset="1"
             style="stop-color:#F7706A"
             id="stop939" /></linearGradient><polygon
           points="40.652,34.081 48.475,31.819 30.421,60.765 35.988,63.931 56.599,51.72 56.75,27.749 46.67,21.869 48.325,8 "
           id="polygon942"
           style="fill:url(#SVGID_3_)" /></g></g></g><g
     id="Shape_1_copy_4_1_"
     enable-background="new    "
     transform="translate(-13.880899,-6.8732462)"><g
       id="Shape_1_copy_4"><g
         id="g955"><linearGradient
           id="SVGID_4_"
           gradientUnits="userSpaceOnUse"
           x1="41.554699"
           y1="25.035601"
           x2="56.7495"
           y2="25.035601"><stop
             offset="0.0012"
             style="stop-color:#C9191C"
             id="stop948" /><stop
             offset="1"
             style="stop-color:#EE2A2C"
             id="stop950" /></linearGradient><path
           d="M 46.67,21.869 48.325,8 41.555,31.217 c 0,0 0.849,0.267 1.69,0.681 0.829,0.407 1.65,0.962 1.645,0.959 -0.033,-0.021 3.586,-1.037 3.586,-1.037 l -1.354,2.262 c 0,0 2.816,1.645 5.321,3.756 2.217,1.869 4.157,4.234 4.157,4.234 L 56.75,27.75 Z"
           id="path953"
           style="fill:url(#SVGID_4_)"
           inkscape:connector-curvature="0" /></g></g></g></svg>