<svg xmlns="http://www.w3.org/2000/svg" xmlns:xlink="http://www.w3.org/1999/xlink" width="36" height="36" viewBox="0 0 36 36"><defs><path id="a" d="M885.54 5145.04c.85.87 1.86 1.4 2.82 1.51.98.1 2.02-.23 3.17-1.49.35-.39.74-.84 1.4-1.06.65-.22 1.44-.08 2.27.36 1.6 1.2 3.25 2.4 4.82 3.64.75.74.94 1.7.7 2.47a4.66 4.66 0 0 1-1.24 1.83c-2.67 2.74-5.83 4.06-8.93 3.6-3-.51-5.89-2.58-9.1-5.75l-3.83-3.77c-3.2-3.17-5.3-6.02-5.82-8.98-.62-3.65 1.35-6.62 3.65-8.8.49-.47 1.08-.98 1.85-1.22a2.55 2.55 0 0 1 2.5.69c1.26 1.55 2.48 3.17 3.7 4.75.45.82.58 1.6.36 2.24-.22.65-.68 1.03-1.07 1.38-1.28 1.13-1.6 2.16-1.51 3.12.1.95.65 1.95 1.53 2.78.89.83 2.73 2.7 2.73 2.7zm-3.82-1.62a6.07 6.07 0 0 1-1.99-3.71c-.14-1.46.48-3.03 2.02-4.4.38-.34.59-.57.64-.74.06-.16.08-.4-.24-1l-3.43-4.42c-.45-.44-.62-.43-.96-.32-.34.1-.8.44-1.23.85-2.76 2.73-3.63 5.04-3.2 7.46.42 2.42 2.27 5.09 5.39 8.17l3.82 3.77c3.12 3.07 5.82 4.9 8.28 5.31 2.45.42 4.8-.43 7.56-3.16.42-.42.77-.88.87-1.21.1-.33.12-.5-.32-.94l-4.5-3.39c-.6-.31-.84-.3-1-.24-.18.05-.41.26-.75.63-1.39 1.53-2.99 2.13-4.46 2a6.2 6.2 0 0 1-3.77-1.97c-1-1.02-2.73-2.69-2.73-2.69zm5.4-19.42c9.81 0 17.78 7.85 17.78 17.52a.8.8 0 0 1-.78.77.8.8 0 0 1-.77-.77c0-8.85-7.25-16-16.22-16a.8.8 0 0 1-.82-.72c0-.4.36-.8.82-.8zm-.8 5.37c-.01-.37.33-.8.8-.8 7.25 0 13.14 5.8 13.14 12.95a.8.8 0 0 1-.77.77.8.8 0 0 1-.77-.77 11.5 11.5 0 0 0-11.6-11.43.8.8 0 0 1-.8-.72z"/></defs><g transform="translate(-870 -5122)"><use fill="#fed000" xlink:href="#a"/></g></svg>