<svg xmlns="http://www.w3.org/2000/svg" xmlns:xlink="http://www.w3.org/1999/xlink" width="45" height="77" viewBox="0 0 45 77"><defs><path id="a" d="M730.99 3565.96v60.07a6.98 6.98 0 0 1-7 6.97h-28c-3.86 0-7-3.12-7-6.97v-60.07a6.98 6.98 0 0 1 7-6.97h28c3.86 0 7 3.12 7 6.97zm-26.52.16c0 .87.7 1.58 1.58 1.58h7.88a1.58 1.58 0 0 0 0-3.16h-7.88c-.87 0-1.58.71-1.58 1.58zm8.04 59.04a2.51 2.51 0 0 0-5.03 0 2.51 2.51 0 0 0 5.03 0zm15.42-6.97v-45.27h-35.88v45.27z"/></defs><g transform="translate(-687 -3557)"><use fill="#efc400" xlink:href="#a"/></g></svg>