<svg xmlns="http://www.w3.org/2000/svg" xmlns:xlink="http://www.w3.org/1999/xlink" width="105" height="103" viewBox="0 0 105 103"><defs><path id="a" d="M1464.23 1528.81l-4.16 4.13c-1 .97-2.7.97-3.68 0a2.54 2.54 0 0 1-.24-3.37h-39.05v38.66a2.6 2.6 0 0 1 4.17 2.06c0 .69-.28 1.33-.77 1.82l-4.17 4.13a2.6 2.6 0 0 1-3.68 0l-4.16-4.13a2.55 2.55 0 0 1 0-3.64 2.7 2.7 0 0 1 3.4-.24v-38.67h-39.05a2.55 2.55 0 0 1-.24 3.37c-.98.98-2.7.97-3.68 0l-4.16-4.12a2.56 2.56 0 0 1 0-3.64l4.16-4.13c.98-.97 2.7-.97 3.68 0a2.54 2.54 0 0 1 .24 3.37h39.05v-38.67a2.63 2.63 0 0 1-3.4-.23 2.54 2.54 0 0 1 0-3.65l4.16-4.12c1.02-1 2.67-1 3.68 0l4.17 4.13a2.55 2.55 0 0 1 0 3.64c-.9.88-2.41.98-3.4.24v38.66h39.05a2.53 2.53 0 0 1 .24-3.37c.97-.97 2.69-.97 3.68 0l4.16 4.13a2.56 2.56 0 0 1 0 3.64zm-62.61-43.33v19.1a8.53 8.53 0 0 1-8.57 8.5h-19.3a8.53 8.53 0 0 1-8.58-8.5v-19.1a8.53 8.53 0 0 1 8.58-8.5h19.3c4.73 0 8.57 3.81 8.57 8.5zm-6.53 15.6v-12.09c0-3.06-2.5-5.54-5.6-5.54h-12.2a5.57 5.57 0 0 0-5.59 5.54v12.08c0 3.06 2.5 5.54 5.6 5.54h12.2c3.09 0 5.6-2.48 5.6-5.54zm-19.23-6.05a2.59 2.59 0 0 1 2.6-2.57h9.87c1.44 0 2.6 1.15 2.6 2.57a2.59 2.59 0 0 1-2.6 2.58h-9.87a2.59 2.59 0 0 1-2.6-2.58zm87.95-9.55v19.1a8.53 8.53 0 0 1-8.57 8.5h-19.3a8.53 8.53 0 0 1-8.57-8.5v-19.1a8.53 8.53 0 0 1 8.57-8.5h19.3c4.73 0 8.57 3.81 8.57 8.5zm-6.52 3.5c0-3.05-2.5-5.53-5.6-5.53h-12.2a5.57 5.57 0 0 0-5.6 5.54v12.08c0 3.06 2.5 5.54 5.6 5.54h12.2c3.1 0 5.6-2.48 5.6-5.54zm-19.24 6.05a2.59 2.59 0 0 1 2.6-2.57h9.88c1.43 0 2.6 1.15 2.6 2.57a2.59 2.59 0 0 1-2.6 2.58h-9.88a2.59 2.59 0 0 1-2.6-2.58zm-36.43 54.37v19.1a8.53 8.53 0 0 1-8.57 8.5h-19.3a8.53 8.53 0 0 1-8.58-8.5v-19.1a8.53 8.53 0 0 1 8.58-8.5h19.3c4.73 0 8.57 3.8 8.57 8.5zm-6.53 15.6v-12.1c0-3.05-2.5-5.53-5.6-5.53h-12.2a5.57 5.57 0 0 0-5.59 5.54v12.08c0 3.06 2.5 5.54 5.6 5.54h12.2c3.09 0 5.6-2.48 5.6-5.54zm-19.23-6.05a2.59 2.59 0 0 1 2.6-2.58h9.87c1.44 0 2.6 1.16 2.6 2.58a2.59 2.59 0 0 1-2.6 2.57h-9.87a2.59 2.59 0 0 1-2.6-2.57zm87.95-9.55v19.1a8.53 8.53 0 0 1-8.57 8.5h-19.3a8.53 8.53 0 0 1-8.57-8.5v-19.1a8.53 8.53 0 0 1 8.57-8.5h19.3c4.73 0 8.57 3.8 8.57 8.5zm-6.52 3.5c0-3.05-2.5-5.53-5.6-5.53h-12.2a5.57 5.57 0 0 0-5.6 5.54v12.08c0 3.06 2.5 5.54 5.6 5.54h12.2c3.1 0 5.6-2.48 5.6-5.54zm-19.24 6.05a2.59 2.59 0 0 1 2.6-2.58h9.88c1.43 0 2.6 1.16 2.6 2.58a2.59 2.59 0 0 1-2.6 2.57h-9.88a2.59 2.59 0 0 1-2.6-2.57z"/></defs><g transform="translate(-1362 -1475)"><use fill="#fff" xlink:href="#a"/></g></svg>