<svg xmlns="http://www.w3.org/2000/svg" xmlns:xlink="http://www.w3.org/1999/xlink" width="102" height="104" viewBox="0 0 102 104"><defs><path id="a" d="M1009 1906.52c0 .63-.23 1.21-.69 1.65l-4.1 4.14a2.32 2.32 0 0 1-3.3 0 2.33 2.33 0 0 1 0-3.3l.15-.15h-83.11l.14.14a2.33 2.33 0 1 1-3.3 3.31l-4.1-4.14a2.35 2.35 0 0 1-.02-3.3l4.13-4.14a2.35 2.35 0 0 1 3.98 1.65c0 .63-.25 1.21-.7 1.65l-.14.17h83.12l-.15-.17a2.33 2.33 0 1 1 3.3-3.3l4.12 4.14c.44.44.67 1.04.67 1.65zm-2.1-40.44a2.75 2.75 0 0 1-2.55 1.7h-3.9c-.2 0-.36.17-.36.37v23.38c0 2.59-2.1 4.7-4.68 4.7h-11.35a4.69 4.69 0 0 1-4.68-4.7v-23.38c0-.2-.16-.36-.36-.36h-3.9a2.77 2.77 0 0 1-1.95-4.72l12.98-13.03a5.06 5.06 0 0 1 7.17 0l12.98 13.02c.8.8 1.03 1.98.6 3.02zM990 1854.53a.36.36 0 0 0-.51 0l-7.7 7.72c1.72 0 3.12 1.4 3.12 3.13v23.38c0 1.07.86 1.93 1.92 1.93h5.83c1.06 0 1.92-.86 1.92-1.93v-23.38c0-1.73 1.4-3.13 3.12-3.13zm-13.32-24a2.75 2.75 0 0 1-2.55 1.7h-3.9c-.2 0-.36.17-.36.37v58.93c0 2.59-2.1 4.7-4.68 4.7h-11.35a4.69 4.69 0 0 1-4.68-4.7v-58.93c0-.2-.16-.36-.36-.36h-3.9a2.77 2.77 0 1 1-1.95-4.72l12.98-13.03a5.06 5.06 0 0 1 7.16 0l12.99 13.02c.79.8 1.02 1.98.6 3.02zm-16.92-11.55a.36.36 0 0 0-.5 0l-7.7 7.72c1.72 0 3.11 1.4 3.11 3.13v58.93c0 1.07.86 1.93 1.92 1.93h5.84c1.06 0 1.92-.86 1.92-1.93v-58.93c0-1.73 1.4-3.13 3.12-3.13zm-13.31 34.55a2.75 2.75 0 0 1-2.55 1.7h-3.9c-.2 0-.37.17-.37.37v35.93c0 2.59-2.1 4.7-4.68 4.7H923.6a4.69 4.69 0 0 1-4.67-4.7v-35.93c0-.2-.16-.36-.36-.36h-3.9a2.77 2.77 0 1 1-1.95-4.72l12.97-13.02a5.06 5.06 0 0 1 7.17 0l12.98 13.02c.8.8 1.03 1.97.6 3.01zm-16.92-11.55a.36.36 0 0 0-.5 0l-7.71 7.73c1.72 0 3.12 1.4 3.12 3.12v35.93c0 1.07.86 1.93 1.92 1.93h5.83c1.06 0 1.92-.86 1.92-1.93v-35.93c0-1.72 1.4-3.12 3.12-3.12z"/></defs><g transform="translate(-908 -1811)"><use fill="#fff" xlink:href="#a"/></g></svg>