<svg xmlns="http://www.w3.org/2000/svg" xmlns:xlink="http://www.w3.org/1999/xlink" width="90" height="103" viewBox="0 0 90 103"><defs><path id="a" d="M948.72 1543.93l7.5 4.36a9.38 9.38 0 0 0-2.06 4.84l-8.63-5a9.5 9.5 0 0 0 3.19-4.2zm32.94 4.07l-8.84 5.13a9.38 9.38 0 0 0-2.06-4.84l7.82-4.54a9.46 9.46 0 0 0 3.08 4.25zm5.96-16.9l2.93-13.64a9.31 9.31 0 0 0 4.2 1.03c.31 0 .61-.06.93-.1l-3.06 14.26a9.36 9.36 0 0 0-5-1.56zm-2.26-22.71l-13.63-4.46a9.4 9.4 0 0 0 1.2-4.54c0-.2-.04-.39-.05-.58l14.24 4.65a9.4 9.4 0 0 0-1.76 4.93zm21.6 42.65l.01-.04v.04zm-59.72-38.46a7.33 7.33 0 0 1-7.32 7.34 7.33 7.33 0 0 1-7.31-7.34 7.33 7.33 0 0 1 7.31-7.34 7.33 7.33 0 0 1 7.32 7.34zm-4.44 0a2.88 2.88 0 1 0-5.76-.01 2.88 2.88 0 0 0 5.76 0zm28-13.19a7.33 7.33 0 0 1-7.3 7.34 7.33 7.33 0 0 1-7.32-7.34 7.33 7.33 0 1 1 14.63 0zm-4.43 0a2.88 2.88 0 1 0-5.76 0 2.88 2.88 0 0 0 5.76 0zm35.69 9.62a7.33 7.33 0 0 1-7.32 7.34 7.33 7.33 0 0 1-7.31-7.34 7.33 7.33 0 0 1 7.31-7.34 7.33 7.33 0 0 1 7.32 7.34zm-4.44 0a2.88 2.88 0 1 0-5.76 0 2.88 2.88 0 0 0 5.76 0zm-26.81 45.26a7.33 7.33 0 0 1-7.32 7.34 7.33 7.33 0 0 1-7.31-7.34 7.33 7.33 0 1 1 14.63 0zm-4.44 0a2.88 2.88 0 1 0-5.76-.01 2.88 2.88 0 0 0 5.76 0zm-19.13-13.72a7.33 7.33 0 0 1-7.32 7.34 7.33 7.33 0 0 1-7.31-7.34 7.33 7.33 0 0 1 7.31-7.34 7.33 7.33 0 0 1 7.32 7.34zm-4.44 0a2.88 2.88 0 1 0-5.76-.01 2.88 2.88 0 0 0 5.76.01zm51.94 0a7.33 7.33 0 0 1-7.31 7.34 7.33 7.33 0 0 1-7.32-7.34 7.33 7.33 0 0 1 7.32-7.34 7.33 7.33 0 0 1 7.31 7.34zm-4.44 0a2.88 2.88 0 1 0-5.76-.01 2.88 2.88 0 0 0 5.76.01zm-44.15-35.04l8.04-4.66a9.4 9.4 0 0 0 2.23 4.75l-7.47 4.33a9.45 9.45 0 0 0-2.8-4.42zm-4.66 16.39v9.33a9.22 9.22 0 0 0-1.57-.16c-1.29 0-2.52.27-3.64.74v-10.5a9.34 9.34 0 0 0 5.2.59zm65.5-18.63l-.18 48.4-.15.3-1.2 1.12-40.97 23.71h-.02l-.57.16c-.19.03-.3.04-.4.04l-.61-.07a4.97 4.97 0 0 1-.3-.1l-.52-.25-40.94-23.74-.24-.18-.41-.45-.16-.24-.3-.89a2.52 2.52 0 0 1-.03-.38v-47.4c0-.24.03-.45.09-.66l.24-.6c.08-.15.14-.24.2-.32l.45-.46.31-.21 11.1-6.44 5.42-3.13 24.58-14.23c.08-.04.17-.08.28-.1l.44-.12.4-.03.62.08c.17.04.27.08.36.12l.3.14.12.08 41.31 24.03.6.88.08.27c.07.26.1.46.1.67zm-2.8 5.74a9.47 9.47 0 0 0-11.2-9.3l-26.9-15.57v6.19a9.28 9.28 0 0 0-2.6-.41c-.9 0-1.77.17-2.6.4v-6.18l-20.48 11.87-5.42 3.13-7.22 4.19 5.1 3.01a9.42 9.42 0 0 0-2.24 4.75l-5.43-3.2v38.32l5.64-3.2a9.45 9.45 0 0 0 2.7 4.48l-5.7 3.23 33.05 19.14v-6.52c.83.24 1.7.4 2.6.4.91 0 1.77-.16 2.6-.4v6.52l33.05-19.14-5.47-3.1a9.43 9.43 0 0 0 2.78-4.43l5.33 3.02v-30.94a9.42 9.42 0 0 0 2.4-6.26zm-31.55 16.09l-3.94 2.33 11.82 6.7a9.45 9.45 0 0 0-2.36 4.67l-12.06-6.84v13.24a9.28 9.28 0 0 0-2.61-.4c-.91 0-1.77.16-2.6.4v-13.24l-11.73 6.65a9.47 9.47 0 0 0-2.45-4.62l11.57-6.56-12.56-7.43a9.45 9.45 0 0 0 3.06-4.25l12.1 7.15v-14.44c.84.24 1.7.41 2.61.41.91 0 1.77-.17 2.6-.41v14.44l3.9-2.3 5.4-3.19 10.24-6.05a9.47 9.47 0 0 0 2.63 4.51l-10.23 6.05z"/></defs><g transform="translate(-918 -1475)"><use fill="#fed000" xlink:href="#a"/></g></svg>