<svg xmlns="http://www.w3.org/2000/svg" xmlns:xlink="http://www.w3.org/1999/xlink" width="173" height="151" viewBox="0 0 173 151"><defs><path id="a" d="M1123.98 3595c0-.75.2-1.5.59-2.18l40.06-69.61a4.39 4.39 0 0 1 3.8-2.2h80.13c1.57 0 3.02.83 3.8 2.2l40.07 69.6a4.4 4.4 0 0 1 0 4.39l-40.07 69.6a4.39 4.39 0 0 1-3.8 2.2h-80.13a4.39 4.39 0 0 1-3.8-2.2l-40.06-69.6a4.4 4.4 0 0 1-.59-2.2zm46.99-65.21l-37.54 65.22 37.54 65.22h75.05l37.54-65.22-37.54-65.22z"/></defs><g transform="translate(-1122 -3520)"><use fill="#efc400" xlink:href="#a"/></g></svg>