<svg xmlns="http://www.w3.org/2000/svg" xmlns:xlink="http://www.w3.org/1999/xlink" width="64" height="82" viewBox="0 0 64 82"><defs><path id="a" d="M1488 3564.97v8.78c0 1.21-.98 2.2-2.18 2.2h-21.78v10.97h5.44a18.6 18.6 0 0 1 18.52 18.65 18.6 18.6 0 0 1-18.52 18.65h-5.44v6.59c0 1.2-.98 2.19-2.18 2.19h-8.72c-1.2 0-2.18-.98-2.18-2.2v-6.58h-21.78c-1.2 0-2.18-.98-2.18-2.2v-8.77c0-1.21.98-2.2 2.18-2.2h21.78v-10.97h-5.44a18.6 18.6 0 0 1-18.52-18.65 18.6 18.6 0 0 1 18.52-18.65h5.44v-6.59c0-1.2.98-2.19 2.18-2.19h8.72c1.2 0 2.18.98 2.18 2.2v6.58h21.78c1.2 0 2.18.98 2.18 2.2zm-32.68-2.2h4.36v-4.38h-4.36zm4.36 61.45h-4.36v4.4h4.36zm4.36-32.91v4.38h5.44c5.4 0 9.8 4.43 9.8 9.88 0 5.44-4.4 9.87-9.8 9.87h-38.12v4.4h38.12c7.81 0 14.16-6.4 14.16-14.27 0-7.87-6.35-14.26-14.16-14.26zm-13.08-15.37h-5.44c-3 0-5.45 2.47-5.45 5.49a5.47 5.47 0 0 0 5.45 5.49h5.44zm8.72 35.12v-35.12h-4.36v35.12zm9.8 0c3 0 5.45-2.47 5.45-5.5a5.47 5.47 0 0 0-5.45-5.48h-5.44v10.98zm14.16-43.9h-38.12c-7.81 0-14.16 6.4-14.16 14.27 0 7.87 6.35 14.26 14.16 14.26h5.44v-4.38h-5.44c-5.4 0-9.8-4.43-9.8-9.88 0-5.44 4.4-9.87 9.8-9.87h38.12z"/></defs><g transform="translate(-1425 -3552)"><use fill="#efc400" xlink:href="#a"/></g></svg>