<svg xmlns="http://www.w3.org/2000/svg" xmlns:xlink="http://www.w3.org/1999/xlink" width="104" height="104" viewBox="0 0 104 104"><defs><path id="a" d="M1447.4 1900.37a2.1 2.1 0 0 1-.79 1.53 49.75 49.75 0 0 1-31.47 11.1 49.76 49.76 0 0 1-31.48-11.1 2.1 2.1 0 0 1-.17-3.12l18.05-18.05a2.1 2.1 0 0 1 2.6-.3 20.59 20.59 0 0 0 21.97 0 2.1 2.1 0 0 1 2.62.3l18.05 18.05c.42.42.64 1 .61 1.6zm-7.71-.6l-13.84-13.85a22.56 22.56 0 0 1-21.42 0l-13.85 13.84a41.44 41.44 0 0 0 20.1 7.73c2.81.31 6.11.31 8.9 0a41.45 41.45 0 0 0 20.11-7.73zm25.3-31.57a49.75 49.75 0 0 1-10.82 26.14 2.1 2.1 0 0 1-1.52.78h-.11a2.1 2.1 0 0 1-1.49-.62l-18.05-18.05a2.1 2.1 0 0 1-.29-2.6 20.62 20.62 0 0 0 2.65-6.35 2.1 2.1 0 0 1 2.04-1.62h25.5a2.1 2.1 0 0 1 2.1 2.32zm-5.98 3.15h-18.74a21.74 21.74 0 0 1-1.65 3.97l13.25 13.25a39.7 39.7 0 0 0 7.14-17.22zm5.98-13.83a2.1 2.1 0 0 1-2.09 2.32h-25.5a2.1 2.1 0 0 1-2.04-1.62 20.6 20.6 0 0 0-2.65-6.35 20.51 20.51 0 0 0-6.57-6.58 20.03 20.03 0 0 0-6.34-2.63 2.1 2.1 0 0 1-1.64-2.05v-25.52a2.1 2.1 0 0 1 2.32-2.08c9.57 1 18.6 4.74 26.13 10.82a50.58 50.58 0 0 1 7.56 7.55 49.75 49.75 0 0 1 10.82 26.14zm-25.78-3.46h19.72a41.79 41.79 0 0 0-8.81-19.83 42.47 42.47 0 0 0-6.36-6.35 41.81 41.81 0 0 0-19.82-8.81v19.73a22.68 22.68 0 0 1 12.76 9.76 22.63 22.63 0 0 1 2.51 5.5zm-27.1-38.97v25.52a2.1 2.1 0 0 1-1.63 2.06c-1.5.34-2.9.84-4.26 1.51h-.02c-.7.3-1.39.67-2.04 1.1a21.28 21.28 0 0 0-6.6 6.58 20.59 20.59 0 0 0-2.66 6.36c-.08.4-.16.8-.2 1.2a19.24 19.24 0 0 0-.28 4.22 20.26 20.26 0 0 0 3.13 10.2 2.1 2.1 0 0 1-.28 2.62l-.47.48-3.66 3.65-13.9 13.92c-.4.4-.95.6-1.5.6h-.1a2.14 2.14 0 0 1-1.54-.77 50.16 50.16 0 0 1-10.93-35.64l.12-1.2a49 49 0 0 1 6.1-19.18 52.47 52.47 0 0 1 4.7-6.94 46.43 46.43 0 0 1 4.14-4.5 47.5 47.5 0 0 1 3.43-3.06l.65-.5a49.72 49.72 0 0 1 25.5-10.3 2.08 2.08 0 0 1 2.3 2.07zm-25.14 64.45l-14.25-2.4a42.16 42.16 0 0 0 5.75 10.9zm3.17-16.64l-19.88-3.33a40.5 40.5 0 0 0 .15 7.47c.19 1.9.53 3.77.97 5.62l19.24 3.23 2.31-2.3a24.34 24.34 0 0 1-2.22-5.86 24.13 24.13 0 0 1-.57-4.83zm5.92-16.18l-21.43-3.6c-1.91 3.85-3.23 7.99-3.9 12.25l19.68 3.32c.09-.53.17-1.05.3-1.58a23.6 23.6 0 0 1 3.04-7.28c.67-1.1 1.45-2.14 2.3-3.1zm10.9-6.99v-8.35l-20.03-3.36-.53.4a43.24 43.24 0 0 0-9.59 10.81l23.21 3.9 1.24-.81a22.4 22.4 0 0 1 5.69-2.59zm-.01-12.59v-7.85a43.33 43.33 0 0 0-15 5.31z"/></defs><g transform="translate(-1363 -1811)"><use fill="#fff" xlink:href="#a"/></g></svg>