<svg xmlns="http://www.w3.org/2000/svg" xmlns:xlink="http://www.w3.org/1999/xlink" width="27" height="36" viewBox="0 0 27 36"><defs><path id="a" d="M675.02 5143.87l-8.56 11.76a.86.86 0 0 1-1.4 0l-8.58-11.77a12.76 12.76 0 0 1-2.5-8.29c.43-6.49 5.6-11.57 11.77-11.57 6.18 0 11.35 5.08 11.77 11.57.16 2.98-.73 5.93-2.5 8.3zm-1.4-1.08a10.93 10.93 0 0 0 2.14-7.1c-.31-4.86-4.14-9.88-10-9.88-5.87 0-9.7 5.02-10.02 9.88-.13 2.56.63 5.08 2.15 7.1l7.86 10.8 7.86-10.8zm-2.97-7.22v.03a4.98 4.98 0 0 1-4.95 5.02 4.99 4.99 0 0 1-4.9-5.07 4.98 4.98 0 0 1 4.95-5.02c2.71.01 4.9 2.27 4.9 5.04zm-4.9 3.25a3.2 3.2 0 0 0 3.14-3.25v-.02a3.2 3.2 0 0 0-3.19-3.22 3.2 3.2 0 0 0-3.14 3.27 3.2 3.2 0 0 0 3.2 3.22z"/></defs><g transform="translate(-652 -5122)"><use fill="#fed000" xlink:href="#a"/></g></svg>