<svg xmlns="http://www.w3.org/2000/svg" xmlns:xlink="http://www.w3.org/1999/xlink" width="108" height="108" viewBox="0 0 108 108"><defs><path id="a" d="M489.74 1552.68a9.83 9.83 0 0 1-19.65 0 9.84 9.84 0 0 1 19.65 0zm-6.23 0a3.6 3.6 0 1 0-7.19 0 3.6 3.6 0 0 0 7.19 0zm35.57-26.49a9.83 9.83 0 0 1-19.65 0 9.84 9.84 0 0 1 19.65 0zm-6.24 0a3.6 3.6 0 1 0-7.18 0 3.6 3.6 0 0 0 7.18 0zm-21.55 5.15a6.23 6.23 0 1 1-12.46-.01 6.23 6.23 0 0 1 12.46.01zm-3.95 0a2.27 2.27 0 1 0-4.55 0 2.27 2.27 0 0 0 4.55 0zm23.16 16.19a6.59 6.59 0 1 1-13.18-.02 6.59 6.59 0 0 1 13.18.02zm-4.18 0a2.4 2.4 0 1 0-4.82 0 2.4 2.4 0 0 0 4.82 0zm33.7-26.49a6.59 6.59 0 1 1-13.18-.01 6.59 6.59 0 0 1 13.18.01zm-4.17 0a2.4 2.4 0 1 0-4.82 0 2.4 2.4 0 0 0 4.82 0zm-14.87-18.06a6.59 6.59 0 1 1-13.17-.01 6.59 6.59 0 0 1 13.17.01zm-4.17 0a2.4 2.4 0 1 0-4.82 0 2.4 2.4 0 0 0 4.82 0zm31.6-3.27a9.83 9.83 0 0 1-19.64 0 9.84 9.84 0 0 1 19.64 0zm-6.23 0a3.6 3.6 0 1 0-7.19 0 3.6 3.6 0 0 0 7.19 0zm12.82 75.48c0 .65-.26 1.27-.72 1.73l-4.35 4.35a2.45 2.45 0 0 1-4.2-1.73c0-.66.26-1.28.72-1.74l.16-.16h-85.46a6.82 6.82 0 0 1-6.8-6.8v-85.47l-.17.16a2.46 2.46 0 0 1-3.47-3.47l4.35-4.36a2.46 2.46 0 0 1 3.48 0l4.35 4.36a2.45 2.45 0 0 1 0 3.48c-.93.92-2.55.92-3.48 0l-.15-.17v85.46c0 1.05.85 1.9 1.89 1.9h85.46l-.16-.16a2.44 2.44 0 0 1 0-3.47 2.46 2.46 0 0 1 3.47 0l4.36 4.35c.46.46.72 1.08.72 1.74z"/></defs><g transform="translate(-448 -1475)"><use fill="#fff" xlink:href="#a"/></g></svg>