<svg xmlns="http://www.w3.org/2000/svg" xmlns:xlink="http://www.w3.org/1999/xlink" width="103" height="103" viewBox="0 0 103 103"><defs><path id="a" d="M555 1865.72c0 1.72-.84 3.34-2.23 4.34l-11.6 8.29a9 9 0 0 1-10.52 0l-11.6-8.3a5.34 5.34 0 0 1 3.1-9.67h.38a17.7 17.7 0 0 0-6.6-11.31l3.03-4.25a23 23 0 0 1 8.99 18.18 2.62 2.62 0 0 1-2.62 2.61h-3.19l11.55 8.49c1.3.93 3.13.93 4.43 0l11.6-8.3-3.51-.19a2.62 2.62 0 0 1-2.62-2.61 38.6 38.6 0 0 0-18.53-32.96c-.3-1.82-1.01-3.54-2.1-5.06l-1.66-2.33c.42-.03.84 0 1.23.18a44.08 44.08 0 0 1 26.21 37.55h.92c2.95 0 5.34 2.4 5.34 5.34zm-10.44 14.4a2.6 2.6 0 0 1-.12 2 43.91 43.91 0 0 1-36.83 24.62v.92a5.34 5.34 0 0 1-9.67 3.1l-8.3-11.6a9 9 0 0 1 0-10.51l8.3-11.6a5.35 5.35 0 0 1 9.67 3.1v.37a17.72 17.72 0 0 0 11.32-6.6l4.25 3.04a23.01 23.01 0 0 1-18.18 8.99 2.62 2.62 0 0 1-2.61-2.62v-3.19l-8.49 11.55a3.79 3.79 0 0 0 0 4.43l8.3 11.6.19-3.51a2.62 2.62 0 0 1 2.61-2.62 38.29 38.29 0 0 0 32.96-18.53c1.81-.3 3.54-1 5.07-2.1l1.42-1.02c.03.07.08.12.1.18zm-56.5 22.33c-.33.15-.67.25-1.04.25-.4 0-.79-.1-1.15-.27a43.92 43.92 0 0 1-17.82-15.87 43.71 43.71 0 0 1-6.79-20.95h-.93a5.34 5.34 0 0 1-3.1-9.67l11.6-8.3a9.2 9.2 0 0 1 10.52 0l11.61 8.3a5.34 5.34 0 0 1-3.1 9.68h-.38a17.7 17.7 0 0 0 6.6 11.3l-3.04 4.26a23.01 23.01 0 0 1-8.99-18.18 2.62 2.62 0 0 1 2.62-2.62h3.19l-11.55-8.48a3.87 3.87 0 0 0-4.43 0l-11.6 8.3 3.52.18a2.62 2.62 0 0 1 2.61 2.62 38.3 38.3 0 0 0 18.53 32.96 12.2 12.2 0 0 0 2.1 5.07zm33.98-70.35a9 9 0 0 1-1.69 5.25l-8.29 11.61a5.34 5.34 0 0 1-9.68-3.1v-.38a17.72 17.72 0 0 0-11.3 6.6l-4.26-3.04a23 23 0 0 1 18.18-8.99 2.62 2.62 0 0 1 2.61 2.62v3.19l8.49-11.55a3.78 3.78 0 0 0 0-4.43l-8.3-11.6-.19 3.51a2.62 2.62 0 0 1-2.61 2.62 38.3 38.3 0 0 0-32.98 18.57c-1.8.3-3.53.98-5.05 2.06l-1.42 1.01c-.3-.67-.33-1.46.01-2.17a43.76 43.76 0 0 1 36.82-24.62v-.93a5.34 5.34 0 0 1 9.68-3.1l8.3 11.6a9.01 9.01 0 0 1 1.68 5.27z"/></defs><g transform="translate(-453 -1811)"><use fill="#fff" xlink:href="#a"/></g></svg>