<svg xmlns="http://www.w3.org/2000/svg" xmlns:xlink="http://www.w3.org/1999/xlink" width="43" height="33" viewBox="0 0 43 33"><defs><path id="a" d="M1052.83 5149.17v-20.4c0-2.6 2.15-4.77 4.74-4.77h30.51a4.76 4.76 0 0 1 4.74 4.77v20.45c0 2.6-2.1 4.77-4.74 4.77h-30.51a4.8 4.8 0 0 1-4.74-4.82zm38.08-20.1l-15.33 15.43a3.91 3.91 0 0 1-5.51 0l-3.71-3.73-10.55 10.62c.5.39 1.08.64 1.76.64h30.56c.68 0 1.27-.25 1.76-.64l-10.55-10.62 1.37-1.38 10.15 10.28c.05-.15.05-.3.05-.45zm-35.44-2.12l16.01 16.18c.78.73 2 .73 2.74 0l16.01-16.18a2.87 2.87 0 0 0-2.15-.98h-30.51c-.83 0-1.61.39-2.1.98zm-.68 22.22c0 .15.05.3.05.45l10.15-10.28-10.2-10.28z"/></defs><g transform="translate(-1051 -5122)"><use fill="#fed000" xlink:href="#a"/></g></svg>