<svg xmlns="http://www.w3.org/2000/svg" xmlns:xlink="http://www.w3.org/1999/xlink" width="77" height="77" viewBox="0 0 77 77"><defs><path id="a" d="M1224.56 3595.14a14.7 14.7 0 1 1-29.4 0 14.7 14.7 0 0 1 29.4 0zm-8.92 0a5.78 5.78 0 1 0-11.56 0 5.78 5.78 0 0 0 11.56 0zm-26.43-27.54a8.6 8.6 0 1 1-17.21 0 8.6 8.6 0 0 1 17.2 0zm-5.22 0a3.38 3.38 0 1 0-6.77 0 3.38 3.38 0 0 0 6.77 0zm62.01 0a8.6 8.6 0 1 1-17.21 0 8.6 8.6 0 0 1 17.21 0zm-5.22 0a3.38 3.38 0 1 0-6.77 0 3.38 3.38 0 0 0 6.77 0zm5.22 56.8a8.6 8.6 0 1 1-17.21 0 8.6 8.6 0 0 1 17.21 0zm-5.22 0a3.38 3.38 0 1 0-6.77 0 3.38 3.38 0 0 0 6.77 0zm-51.57 0a8.6 8.6 0 1 1-17.21 0 8.6 8.6 0 0 1 17.2 0zm-5.22 0a3.38 3.38 0 1 0-6.77 0 3.38 3.38 0 0 0 6.77 0zm15.27-41.8a16.55 16.55 0 0 0-3.37 3.94l-10.04-10.04a10.4 10.4 0 0 0 3.65-3.66zm32.9-6.1l-9.02 9a16.55 16.55 0 0 0-3.65-3.64l9.01-9.02a10.4 10.4 0 0 0 3.65 3.66zm-3.66 42.65l-10.04-10.04c1.48-.91 2.81-2.05 3.93-3.37l9.76 9.76a10.4 10.4 0 0 0-3.65 3.65zm-28.35-10.79c-.1.14-.15.3-.28.42l-10.37 10.37a10.38 10.38 0 0 0-3.65-3.65l10.37-10.37c.13-.13.28-.19.42-.28a16.51 16.51 0 0 0 3.51 3.51z"/></defs><g transform="translate(-1170 -3557)"><use fill="#efc400" xlink:href="#a"/></g></svg>