<svg xmlns="http://www.w3.org/2000/svg" xmlns:xlink="http://www.w3.org/1999/xlink" width="42" height="29" viewBox="0 0 42 29"><defs><path id="o5tfa" d="M358 1320.3v22.4c0 .73-.8 1.3-1.82 1.3h-34.36c-1.02 0-1.82-.57-1.82-1.3v-22.4c0-.73.8-1.3 1.82-1.3h34.36c1.02 0 1.82.57 1.82 1.3zm-.44 0c0-.46-.63-.86-1.38-.86h-34.36c-.75 0-1.38.4-1.38.87v22.38c0 .47.63.87 1.38.87h34.36c.75 0 1.38-.4 1.38-.87zm-36.27 1.7c0-.6.49-1.1 1.09-1.1a1.1 1.1 0 0 1 0 2.19c-.6 0-1.09-.5-1.09-1.1zm.44 0c0 .36.29.65.65.65a.65.65 0 0 0 0-1.31c-.36 0-.65.3-.65.65zm2.6 0c0-.6.49-1.1 1.09-1.1a1.1 1.1 0 0 1 0 2.19c-.6 0-1.09-.5-1.09-1.1zm.44 0c0 .36.3.65.65.65a.65.65 0 0 0 0-1.31c-.36 0-.65.3-.65.65zm2.6 0a1.1 1.1 0 1 1 1.09 1.1c-.6-.01-1.09-.5-1.09-1.1zm.44 0c0 .36.3.65.65.65a.65.65 0 0 0 0-1.31c-.36 0-.65.3-.65.65zm28.65.06c0 .64-.63 1.16-1.4 1.16h-23.5c-.78 0-1.4-.52-1.4-1.16 0-.64.62-1.16 1.4-1.16h23.5c.77 0 1.4.52 1.4 1.16zm-.44 0c0-.4-.43-.72-.96-.72h-23.5c-.54 0-.97.32-.97.72 0 .4.44.72.96.72h23.51c.53 0 .96-.32.96-.72zm-34.73 2.12h35.17v18.08h-35.17zm30.58 17.64v-4.27c0-.93-.85-1.69-1.89-1.69h-2c-1.03 0-1.88.76-1.88 1.69v4.27zm.43-4.27v4.27h.83v-13.28c0-.93-.91-1.69-2.03-1.69h-24.2c-1.12 0-2.03.76-2.03 1.7v13.27h20.8v-4.27c0-1.18 1.04-2.13 2.32-2.13h2c1.27 0 2.32.95 2.31 2.13zm-30.57 4.27h2.7v-13.28c0-1.17 1.11-2.13 2.47-2.13h24.2c1.36 0 2.47.96 2.47 2.13v13.28h2.45v-17.2h-34.3zm30.58-9.57c0 1.3-1.05 2.36-2.34 2.36H328.1a2.35 2.35 0 0 1-2.34-2.36v-2.01c0-1.3 1.05-2.36 2.34-2.36h21.86a2.35 2.35 0 0 1 2.34 2.36zm-.44-2.01a1.9 1.9 0 0 0-1.9-1.92H328.1a1.9 1.9 0 0 0-1.9 1.92v2.01a1.9 1.9 0 0 0 1.9 1.92h21.86a1.9 1.9 0 0 0 1.9-1.92z"/></defs><g><g transform="translate(-318 -1317)"><use fill="#212121" xlink:href="#o5tfa"/></g></g></svg>