<!-- Generated by IcoMoon.io -->
<svg version="1.1" xmlns="http://www.w3.org/2000/svg" width="48" height="32" viewBox="0 0 48 32">
<title>united-states</title>
<path fill="#f5f5f5" d="M43.603 0.698h-39.8c-1.936 0-3.506 1.57-3.506 3.506v23.658c0 1.936 1.57 3.506 3.506 3.506h39.8c1.936 0 3.506-1.57 3.506-3.506v-23.658c0-1.936-1.57-3.506-3.506-3.506z"></path>
<path fill="#ff4b55" d="M0.49 3.057h46.426c-0.475-1.373-1.778-2.359-3.313-2.359h-39.8c-1.535 0-2.838 0.986-3.313 2.359z"></path>
<path fill="#ff4b55" d="M0.298 10.134h46.811v2.359h-46.811v-2.359z"></path>
<path fill="#ff4b55" d="M0.298 5.416h46.811v2.359h-46.811v-2.359z"></path>
<path fill="#ff4b55" d="M0.298 16.405c0 0.446 0.361 0.807 0.807 0.807h46.004v-2.359h-46.811z"></path>
<path fill="#ff4b55" d="M0.298 24.29h46.811v2.359h-46.811v-2.359z"></path>
<path fill="#ff4b55" d="M46.916 29.008h-46.426c0.475 1.373 1.779 2.359 3.313 2.359h39.8c1.535 0 2.838-0.986 3.313-2.359z"></path>
<path fill="#ff4b55" d="M0.298 19.572h46.811v2.359h-46.811v-2.359z"></path>
<path fill="#41479b" d="M1.105 17.212h20.177c0.446 0 0.807-0.361 0.807-0.807v-14.9c0-0.446-0.361-0.807-0.807-0.807h-17.479c-1.936 0-3.506 1.57-3.506 3.506v12.201c0 0.446 0.361 0.807 0.807 0.807z"></path>
<path fill="#f5f5f5" d="M2.564 2.55l0.179 0.536 0.565 0.004c0.073 0.001 0.103 0.094 0.045 0.137l-0.454 0.335 0.17 0.538c0.022 0.070-0.057 0.127-0.117 0.085l-0.459-0.328-0.459 0.328c-0.060 0.043-0.139-0.015-0.117-0.085l0.17-0.538-0.454-0.335c-0.059-0.044-0.029-0.137 0.045-0.137l0.565-0.004 0.179-0.536c0.023-0.070 0.121-0.070 0.144-0z"></path>
<path fill="#f5f5f5" d="M2.564 5.353l0.179 0.536 0.565 0.004c0.073 0.001 0.103 0.094 0.045 0.137l-0.454 0.336 0.17 0.538c0.022 0.070-0.057 0.127-0.117 0.085l-0.459-0.328-0.459 0.328c-0.060 0.043-0.139-0.015-0.117-0.085l0.17-0.538-0.454-0.336c-0.059-0.044-0.029-0.137 0.045-0.137l0.565-0.004 0.179-0.536c0.023-0.069 0.121-0.069 0.144-0z"></path>
<path fill="#f5f5f5" d="M2.564 8.156l0.179 0.536 0.565 0.004c0.073 0.001 0.103 0.094 0.045 0.137l-0.454 0.336 0.17 0.538c0.022 0.070-0.057 0.127-0.117 0.085l-0.459-0.328-0.459 0.328c-0.060 0.043-0.139-0.015-0.117-0.085l0.17-0.538-0.454-0.336c-0.059-0.044-0.029-0.137 0.045-0.137l0.565-0.004 0.179-0.536c0.023-0.069 0.121-0.069 0.144-0z"></path>
<path fill="#f5f5f5" d="M2.564 10.958l0.179 0.536 0.565 0.004c0.073 0.001 0.103 0.094 0.045 0.137l-0.454 0.336 0.17 0.538c0.022 0.070-0.057 0.127-0.117 0.085l-0.459-0.328-0.459 0.328c-0.060 0.043-0.139-0.015-0.117-0.085l0.17-0.538-0.454-0.336c-0.059-0.043-0.029-0.137 0.045-0.137l0.565-0.004 0.179-0.536c0.023-0.069 0.121-0.069 0.144-0z"></path>
<path fill="#f5f5f5" d="M2.564 13.761l0.179 0.536 0.565 0.004c0.073 0.001 0.103 0.094 0.045 0.137l-0.454 0.336 0.17 0.538c0.022 0.070-0.057 0.127-0.117 0.085l-0.459-0.328-0.459 0.328c-0.060 0.043-0.139-0.015-0.117-0.085l0.17-0.538-0.454-0.336c-0.059-0.044-0.029-0.137 0.045-0.137l0.565-0.004 0.179-0.536c0.023-0.069 0.121-0.069 0.144-0z"></path>
<path fill="#f5f5f5" d="M4.739 3.924l0.179 0.536 0.565 0.004c0.073 0.001 0.103 0.094 0.045 0.137l-0.454 0.336 0.17 0.538c0.022 0.070-0.057 0.127-0.117 0.085l-0.459-0.328-0.459 0.328c-0.060 0.043-0.139-0.015-0.117-0.085l0.17-0.538-0.454-0.336c-0.059-0.044-0.029-0.137 0.045-0.137l0.565-0.004 0.179-0.536c0.023-0.069 0.121-0.069 0.144 0z"></path>
<path fill="#f5f5f5" d="M4.739 6.727l0.179 0.536 0.565 0.004c0.073 0.001 0.103 0.094 0.045 0.137l-0.454 0.336 0.17 0.538c0.022 0.070-0.057 0.127-0.117 0.085l-0.459-0.328-0.459 0.328c-0.060 0.043-0.139-0.015-0.117-0.085l0.17-0.538-0.454-0.336c-0.059-0.043-0.029-0.137 0.045-0.137l0.565-0.004 0.179-0.536c0.023-0.069 0.121-0.069 0.144 0z"></path>
<path fill="#f5f5f5" d="M4.739 9.53l0.179 0.536 0.565 0.004c0.073 0.001 0.103 0.094 0.045 0.137l-0.454 0.336 0.17 0.538c0.022 0.070-0.057 0.127-0.117 0.085l-0.459-0.328-0.459 0.328c-0.060 0.043-0.139-0.015-0.117-0.085l0.17-0.538-0.454-0.336c-0.059-0.044-0.029-0.137 0.045-0.137l0.565-0.004 0.179-0.536c0.023-0.069 0.121-0.069 0.144 0z"></path>
<path fill="#f5f5f5" d="M4.739 12.332l0.179 0.536 0.565 0.004c0.073 0.001 0.103 0.094 0.045 0.137l-0.454 0.336 0.17 0.538c0.022 0.070-0.057 0.127-0.117 0.085l-0.459-0.328-0.459 0.328c-0.060 0.043-0.139-0.015-0.117-0.085l0.17-0.538-0.454-0.336c-0.059-0.044-0.029-0.137 0.045-0.137l0.565-0.004 0.179-0.536c0.023-0.069 0.121-0.069 0.144 0z"></path>
<path fill="#f5f5f5" d="M6.915 2.55l0.179 0.536 0.565 0.004c0.073 0.001 0.103 0.094 0.045 0.137l-0.454 0.335 0.17 0.538c0.022 0.070-0.057 0.127-0.117 0.085l-0.459-0.328-0.459 0.328c-0.060 0.043-0.139-0.015-0.117-0.085l0.17-0.538-0.454-0.335c-0.059-0.044-0.029-0.137 0.045-0.137l0.565-0.004 0.179-0.536c0.023-0.069 0.121-0.069 0.144 0z"></path>
<path fill="#f5f5f5" d="M6.915 5.353l0.179 0.536 0.565 0.004c0.073 0.001 0.103 0.094 0.045 0.137l-0.454 0.336 0.17 0.538c0.022 0.070-0.057 0.127-0.117 0.085l-0.459-0.328-0.459 0.328c-0.060 0.043-0.139-0.015-0.117-0.085l0.17-0.538-0.454-0.336c-0.059-0.044-0.029-0.137 0.045-0.137l0.565-0.004 0.179-0.536c0.023-0.069 0.121-0.069 0.144 0z"></path>
<path fill="#f5f5f5" d="M6.915 8.156l0.179 0.536 0.565 0.004c0.073 0.001 0.103 0.094 0.045 0.137l-0.454 0.336 0.17 0.538c0.022 0.070-0.057 0.127-0.117 0.085l-0.459-0.328-0.459 0.328c-0.060 0.043-0.139-0.015-0.117-0.085l0.17-0.538-0.454-0.336c-0.059-0.044-0.029-0.137 0.045-0.137l0.565-0.004 0.179-0.536c0.023-0.069 0.121-0.069 0.144 0z"></path>
<path fill="#f5f5f5" d="M6.915 10.958l0.179 0.536 0.565 0.004c0.073 0.001 0.103 0.094 0.045 0.137l-0.454 0.336 0.17 0.538c0.022 0.070-0.057 0.127-0.117 0.085l-0.459-0.328-0.459 0.328c-0.060 0.043-0.139-0.015-0.117-0.085l0.17-0.538-0.454-0.336c-0.059-0.043-0.029-0.137 0.045-0.137l0.565-0.004 0.179-0.536c0.023-0.069 0.121-0.069 0.144 0z"></path>
<path fill="#f5f5f5" d="M6.915 13.761l0.179 0.536 0.565 0.004c0.073 0.001 0.103 0.094 0.045 0.137l-0.454 0.336 0.17 0.538c0.022 0.070-0.057 0.127-0.117 0.085l-0.459-0.328-0.459 0.328c-0.060 0.043-0.139-0.015-0.117-0.085l0.17-0.538-0.454-0.336c-0.059-0.044-0.029-0.137 0.045-0.137l0.565-0.004 0.179-0.536c0.023-0.069 0.121-0.069 0.144 0z"></path>
<path fill="#f5f5f5" d="M9.090 3.924l0.179 0.536 0.565 0.004c0.073 0.001 0.103 0.094 0.045 0.137l-0.454 0.336 0.17 0.538c0.022 0.070-0.057 0.127-0.117 0.085l-0.459-0.328-0.459 0.328c-0.060 0.043-0.139-0.015-0.117-0.085l0.17-0.538-0.454-0.336c-0.059-0.044-0.029-0.137 0.045-0.137l0.565-0.004 0.179-0.536c0.023-0.069 0.121-0.069 0.144 0z"></path>
<path fill="#f5f5f5" d="M9.090 6.727l0.179 0.536 0.565 0.004c0.073 0.001 0.103 0.094 0.045 0.137l-0.454 0.336 0.17 0.538c0.022 0.070-0.057 0.127-0.117 0.085l-0.459-0.328-0.459 0.328c-0.060 0.043-0.139-0.015-0.117-0.085l0.17-0.538-0.454-0.336c-0.059-0.043-0.029-0.137 0.045-0.137l0.565-0.004 0.179-0.536c0.023-0.069 0.121-0.069 0.144 0z"></path>
<path fill="#f5f5f5" d="M9.090 9.53l0.179 0.536 0.565 0.004c0.073 0.001 0.103 0.094 0.045 0.137l-0.454 0.336 0.17 0.538c0.022 0.070-0.057 0.127-0.117 0.085l-0.459-0.328-0.459 0.328c-0.060 0.043-0.139-0.015-0.117-0.085l0.17-0.538-0.454-0.336c-0.059-0.044-0.029-0.137 0.045-0.137l0.565-0.004 0.179-0.536c0.023-0.069 0.121-0.069 0.144 0z"></path>
<path fill="#f5f5f5" d="M9.090 12.332l0.179 0.536 0.565 0.004c0.073 0.001 0.103 0.094 0.045 0.137l-0.454 0.336 0.17 0.538c0.022 0.070-0.057 0.127-0.117 0.085l-0.459-0.328-0.459 0.328c-0.060 0.043-0.139-0.015-0.117-0.085l0.17-0.538-0.454-0.336c-0.059-0.044-0.029-0.137 0.045-0.137l0.565-0.004 0.179-0.536c0.023-0.069 0.121-0.069 0.144 0z"></path>
<path fill="#f5f5f5" d="M11.265 2.55l0.179 0.536 0.565 0.004c0.073 0.001 0.103 0.094 0.045 0.137l-0.454 0.335 0.17 0.538c0.022 0.070-0.057 0.127-0.117 0.085l-0.46-0.328-0.459 0.328c-0.060 0.043-0.139-0.015-0.117-0.085l0.17-0.538-0.454-0.335c-0.059-0.044-0.029-0.137 0.045-0.137l0.565-0.004 0.179-0.536c0.023-0.070 0.121-0.070 0.144-0z"></path>
<path fill="#f5f5f5" d="M11.265 5.353l0.179 0.536 0.565 0.004c0.073 0.001 0.103 0.094 0.045 0.137l-0.454 0.336 0.17 0.538c0.022 0.070-0.057 0.127-0.117 0.085l-0.46-0.328-0.459 0.328c-0.060 0.043-0.139-0.015-0.117-0.085l0.17-0.538-0.454-0.336c-0.059-0.044-0.029-0.137 0.045-0.137l0.565-0.004 0.179-0.536c0.023-0.069 0.121-0.069 0.144 0z"></path>
<path fill="#f5f5f5" d="M11.265 8.156l0.179 0.536 0.565 0.004c0.073 0.001 0.103 0.094 0.045 0.137l-0.454 0.336 0.17 0.538c0.022 0.070-0.057 0.127-0.117 0.085l-0.46-0.329-0.459 0.328c-0.060 0.043-0.139-0.015-0.117-0.085l0.17-0.538-0.454-0.336c-0.059-0.044-0.029-0.137 0.045-0.137l0.565-0.004 0.179-0.536c0.023-0.069 0.121-0.069 0.144 0z"></path>
<path fill="#f5f5f5" d="M11.265 10.958l0.179 0.536 0.565 0.004c0.073 0.001 0.103 0.094 0.045 0.137l-0.454 0.336 0.17 0.538c0.022 0.070-0.057 0.127-0.117 0.085l-0.46-0.328-0.459 0.328c-0.060 0.043-0.139-0.015-0.117-0.085l0.17-0.538-0.454-0.336c-0.059-0.043-0.029-0.137 0.045-0.137l0.565-0.004 0.179-0.536c0.023-0.069 0.121-0.069 0.144 0z"></path>
<path fill="#f5f5f5" d="M11.265 13.761l0.179 0.536 0.565 0.004c0.073 0.001 0.103 0.094 0.045 0.137l-0.454 0.336 0.17 0.538c0.022 0.070-0.057 0.127-0.117 0.085l-0.46-0.328-0.459 0.328c-0.060 0.043-0.139-0.015-0.117-0.085l0.17-0.538-0.454-0.336c-0.059-0.044-0.029-0.137 0.045-0.137l0.565-0.004 0.179-0.536c0.023-0.069 0.121-0.069 0.144 0z"></path>
<path fill="#f5f5f5" d="M13.441 3.924l0.179 0.536 0.565 0.004c0.073 0.001 0.103 0.094 0.045 0.137l-0.454 0.336 0.17 0.538c0.022 0.070-0.057 0.127-0.117 0.085l-0.459-0.328-0.459 0.328c-0.060 0.043-0.139-0.015-0.117-0.085l0.17-0.538-0.454-0.336c-0.059-0.044-0.029-0.137 0.045-0.137l0.565-0.004 0.179-0.536c0.023-0.069 0.121-0.069 0.144 0z"></path>
<path fill="#f5f5f5" d="M13.441 6.727l0.179 0.536 0.565 0.004c0.073 0.001 0.103 0.094 0.045 0.137l-0.454 0.336 0.17 0.538c0.022 0.070-0.057 0.127-0.117 0.085l-0.459-0.328-0.459 0.328c-0.060 0.043-0.139-0.015-0.117-0.085l0.17-0.538-0.454-0.336c-0.059-0.043-0.029-0.137 0.045-0.137l0.565-0.004 0.179-0.536c0.023-0.069 0.121-0.069 0.144 0z"></path>
<path fill="#f5f5f5" d="M13.441 9.53l0.179 0.536 0.565 0.004c0.073 0.001 0.103 0.094 0.045 0.137l-0.454 0.336 0.17 0.538c0.022 0.070-0.057 0.127-0.117 0.085l-0.459-0.328-0.459 0.328c-0.060 0.043-0.139-0.015-0.117-0.085l0.17-0.538-0.454-0.336c-0.059-0.044-0.029-0.137 0.045-0.137l0.565-0.004 0.179-0.536c0.023-0.069 0.121-0.069 0.144 0z"></path>
<path fill="#f5f5f5" d="M13.441 12.332l0.179 0.536 0.565 0.004c0.073 0.001 0.103 0.094 0.045 0.137l-0.454 0.336 0.17 0.538c0.022 0.070-0.057 0.127-0.117 0.085l-0.459-0.328-0.459 0.328c-0.060 0.043-0.139-0.015-0.117-0.085l0.17-0.538-0.454-0.336c-0.059-0.044-0.029-0.137 0.045-0.137l0.565-0.004 0.179-0.536c0.023-0.069 0.121-0.069 0.144 0z"></path>
<path fill="#f5f5f5" d="M15.616 2.55l0.179 0.536 0.565 0.004c0.073 0.001 0.103 0.094 0.045 0.137l-0.454 0.335 0.17 0.538c0.022 0.070-0.057 0.127-0.117 0.085l-0.459-0.328-0.459 0.328c-0.060 0.043-0.139-0.015-0.117-0.085l0.17-0.538-0.454-0.335c-0.059-0.044-0.029-0.137 0.045-0.137l0.565-0.004 0.179-0.536c0.023-0.069 0.121-0.069 0.144 0z"></path>
<path fill="#f5f5f5" d="M15.616 5.353l0.179 0.536 0.565 0.004c0.073 0.001 0.103 0.094 0.045 0.137l-0.454 0.336 0.17 0.538c0.022 0.070-0.057 0.127-0.117 0.085l-0.459-0.328-0.459 0.328c-0.060 0.043-0.139-0.015-0.117-0.085l0.17-0.538-0.454-0.336c-0.059-0.044-0.029-0.137 0.045-0.137l0.565-0.004 0.179-0.536c0.023-0.069 0.121-0.069 0.144 0z"></path>
<path fill="#f5f5f5" d="M15.616 8.156l0.179 0.536 0.565 0.004c0.073 0.001 0.103 0.094 0.045 0.137l-0.454 0.336 0.17 0.538c0.022 0.070-0.057 0.127-0.117 0.085l-0.459-0.328-0.459 0.328c-0.060 0.043-0.139-0.015-0.117-0.085l0.17-0.538-0.454-0.336c-0.059-0.044-0.029-0.137 0.045-0.137l0.565-0.004 0.179-0.536c0.023-0.069 0.121-0.069 0.144 0z"></path>
<path fill="#f5f5f5" d="M15.616 10.958l0.179 0.536 0.565 0.004c0.073 0.001 0.103 0.094 0.045 0.137l-0.454 0.336 0.17 0.538c0.022 0.070-0.057 0.127-0.117 0.085l-0.459-0.328-0.459 0.328c-0.060 0.043-0.139-0.015-0.117-0.085l0.17-0.538-0.454-0.336c-0.059-0.043-0.029-0.137 0.045-0.137l0.565-0.004 0.179-0.536c0.023-0.069 0.121-0.069 0.144 0z"></path>
<path fill="#f5f5f5" d="M15.616 13.761l0.179 0.536 0.565 0.004c0.073 0.001 0.103 0.094 0.045 0.137l-0.454 0.336 0.17 0.538c0.022 0.070-0.057 0.127-0.117 0.085l-0.459-0.328-0.459 0.328c-0.060 0.043-0.139-0.015-0.117-0.085l0.17-0.538-0.454-0.336c-0.059-0.044-0.029-0.137 0.045-0.137l0.565-0.004 0.179-0.536c0.023-0.069 0.121-0.069 0.144 0z"></path>
<path fill="#f5f5f5" d="M17.792 3.924l0.179 0.536 0.565 0.004c0.073 0.001 0.103 0.094 0.045 0.137l-0.454 0.336 0.17 0.538c0.022 0.070-0.057 0.127-0.117 0.085l-0.459-0.328-0.459 0.328c-0.060 0.043-0.139-0.015-0.117-0.085l0.17-0.538-0.454-0.336c-0.059-0.044-0.029-0.137 0.045-0.137l0.565-0.004 0.179-0.536c0.023-0.069 0.121-0.069 0.144 0z"></path>
<path fill="#f5f5f5" d="M17.792 6.727l0.179 0.536 0.565 0.004c0.073 0.001 0.103 0.094 0.045 0.137l-0.454 0.336 0.17 0.538c0.022 0.070-0.057 0.127-0.117 0.085l-0.459-0.328-0.459 0.328c-0.060 0.043-0.139-0.015-0.117-0.085l0.17-0.538-0.454-0.336c-0.059-0.043-0.029-0.137 0.045-0.137l0.565-0.004 0.179-0.536c0.023-0.069 0.121-0.069 0.144 0z"></path>
<path fill="#f5f5f5" d="M17.792 9.53l0.179 0.536 0.565 0.004c0.073 0.001 0.103 0.094 0.045 0.137l-0.454 0.336 0.17 0.538c0.022 0.070-0.057 0.127-0.117 0.085l-0.459-0.328-0.459 0.328c-0.060 0.043-0.139-0.015-0.117-0.085l0.17-0.538-0.454-0.336c-0.059-0.044-0.029-0.137 0.045-0.137l0.565-0.004 0.179-0.536c0.023-0.069 0.121-0.069 0.144 0z"></path>
<path fill="#f5f5f5" d="M17.792 12.332l0.179 0.536 0.565 0.004c0.073 0.001 0.103 0.094 0.045 0.137l-0.454 0.336 0.17 0.538c0.022 0.070-0.057 0.127-0.117 0.085l-0.459-0.328-0.459 0.328c-0.060 0.043-0.139-0.015-0.117-0.085l0.17-0.538-0.454-0.336c-0.059-0.044-0.029-0.137 0.045-0.137l0.565-0.004 0.179-0.536c0.023-0.069 0.121-0.069 0.144 0z"></path>
<path fill="#f5f5f5" d="M19.967 2.55l0.179 0.536 0.565 0.004c0.073 0.001 0.103 0.094 0.045 0.137l-0.454 0.335 0.17 0.538c0.022 0.070-0.057 0.127-0.117 0.085l-0.459-0.328-0.459 0.328c-0.060 0.043-0.139-0.015-0.117-0.085l0.17-0.538-0.454-0.335c-0.059-0.044-0.029-0.137 0.045-0.137l0.565-0.004 0.179-0.536c0.023-0.069 0.121-0.069 0.144 0z"></path>
<path fill="#f5f5f5" d="M19.967 5.353l0.179 0.536 0.565 0.004c0.073 0.001 0.103 0.094 0.045 0.137l-0.454 0.336 0.17 0.538c0.022 0.070-0.057 0.127-0.117 0.085l-0.459-0.328-0.459 0.328c-0.060 0.043-0.139-0.015-0.117-0.085l0.17-0.538-0.454-0.336c-0.059-0.044-0.029-0.137 0.045-0.137l0.565-0.004 0.179-0.536c0.023-0.069 0.121-0.069 0.144 0z"></path>
<path fill="#f5f5f5" d="M19.967 8.156l0.179 0.536 0.565 0.004c0.073 0.001 0.103 0.094 0.045 0.137l-0.454 0.336 0.17 0.538c0.022 0.070-0.057 0.127-0.117 0.085l-0.459-0.328-0.459 0.328c-0.060 0.043-0.139-0.015-0.117-0.085l0.17-0.538-0.454-0.336c-0.059-0.044-0.029-0.137 0.045-0.137l0.565-0.004 0.179-0.536c0.023-0.069 0.121-0.069 0.144 0z"></path>
<path fill="#f5f5f5" d="M19.967 10.958l0.179 0.536 0.565 0.004c0.073 0.001 0.103 0.094 0.045 0.137l-0.454 0.336 0.17 0.538c0.022 0.070-0.057 0.127-0.117 0.085l-0.459-0.328-0.459 0.328c-0.060 0.043-0.139-0.015-0.117-0.085l0.17-0.538-0.454-0.336c-0.059-0.043-0.029-0.137 0.045-0.137l0.565-0.004 0.179-0.536c0.023-0.069 0.121-0.069 0.144 0z"></path>
<path fill="#f5f5f5" d="M19.967 13.761l0.179 0.536 0.565 0.004c0.073 0.001 0.103 0.094 0.045 0.137l-0.454 0.336 0.17 0.538c0.022 0.070-0.057 0.127-0.117 0.085l-0.459-0.328-0.459 0.328c-0.060 0.043-0.139-0.015-0.117-0.085l0.17-0.538-0.454-0.336c-0.059-0.044-0.029-0.137 0.045-0.137l0.565-0.004 0.179-0.536c0.023-0.069 0.121-0.069 0.144 0z"></path>
</svg>
